# Blender v2.92.0 OBJ File: 'Asteroid3.blend'
# www.blender.org
mtllib Asteroid3.mtl
o Icosphere
v 0.209504 -0.717194 -0.802371
v 0.194691 0.315019 1.018089
v -0.584116 0.361004 -0.796989
v 0.440910 0.315017 -0.938088
v 1.028422 0.315017 0.129445
v -0.178166 1.060728 -0.129444
v 0.178166 -1.060728 0.129444
v -0.003618 -0.523793 0.892291
v 0.847501 -0.523790 0.279175
v -0.850254 -0.671351 -0.000000
v -0.889814 0.356723 0.520931
v -1.043889 -0.053590 -0.000000
v 0.338902 0.957651 0.246226
vt 0.272727 0.000000
vt 0.194689 0.137153
vt 0.427623 0.139429
vt 0.318592 0.288606
vt 0.681202 0.157461
vt 0.658666 0.274305
vt 0.840484 0.274305
vt 0.863020 0.157461
vt 0.985060 0.289045
vt 0.476848 0.274305
vt 0.448444 0.139429
vt 0.727272 0.393651
vt 0.932540 0.431766
vt 0.106898 0.289045
vt 0.181818 0.393651
vt 0.351338 0.412450
vt 0.590909 0.393651
vt 0.522419 0.432483
vt 0.863635 0.393651
vt 0.181818 0.236191
vt 0.136065 0.116845
vt 0.000000 0.157461
vt 0.067874 0.039899
vt 0.636363 0.078731
vt 0.805883 0.059932
vn -0.2955 -0.8931 -0.3392
vn -0.5618 -0.4099 -0.7186
vn 0.7288 -0.0351 0.6838
vn -0.4176 -0.0374 0.9079
vn -0.1400 -0.0982 -0.9853
vn 0.8479 -0.2515 -0.4667
vn 0.6092 0.5498 0.5715
vn -0.2371 0.7776 0.5823
vn -0.7690 0.6144 -0.1764
vn -0.0650 0.7083 -0.7029
vn 0.6110 0.7167 -0.3363
vn 0.4477 0.8015 -0.3964
vn -0.2727 0.7638 0.5850
vn -0.8170 0.5452 -0.1877
vn -0.7795 -0.2443 -0.5768
vn -0.8474 -0.2656 0.4598
vn -0.6444 -0.3652 0.6718
vn 0.5657 -0.2515 0.7853
vn 0.8506 -0.2646 -0.4544
vn -0.3631 -0.8005 0.4769
vn 0.6394 -0.7282 -0.2470
vn 0.4227 -0.6906 0.5868
usemtl None
s off
f 7/1/1 10/2/1 1/3/1
f 1/3/2 10/2/2 3/4/2
f 9/5/3 5/6/3 2/7/3
f 8/8/4 2/7/4 11/9/4
f 1/3/5 3/4/5 4/10/5
f 1/11/6 4/10/6 5/6/6
f 2/7/7 5/6/7 13/12/7
f 11/9/8 2/7/8 6/13/8
f 3/4/9 11/14/9 6/15/9
f 4/10/10 3/4/10 6/16/10
f 5/6/11 4/10/11 13/17/11
f 13/17/12 4/10/12 6/18/12
f 6/13/13 2/7/13 13/19/13
f 12/20/14 11/14/14 3/4/14
f 3/4/15 10/2/15 12/20/15
f 12/20/16 10/21/16 11/14/16
f 10/21/17 8/22/17 11/14/17
f 8/8/18 9/5/18 2/7/18
f 9/5/19 1/11/19 5/6/19
f 7/23/20 8/22/20 10/21/20
f 9/5/21 7/24/21 1/11/21
f 7/25/22 9/5/22 8/8/22
