# Blender v2.92.0 OBJ File: 'Asteroid2.blend'
# www.blender.org
mtllib Asteroid2.mtl
o Icosphere
v -0.235241 -0.700735 -0.724007
v 0.003618 0.523793 0.892291
v -0.847501 0.523790 0.279175
v -0.584116 0.361004 -0.796989
v 0.521546 0.523791 -0.724008
v 0.849739 0.523791 0.272290
v 0.088470 0.994276 -0.272289
v -0.088470 -0.994276 0.272289
v -0.003618 -0.523793 0.892291
v 0.847501 -0.523790 0.279175
v 0.418908 -0.957649 0.000000
v -0.849739 -0.523791 0.272290
v -0.704983 -0.731402 -0.246228
v 0.527408 -0.523791 -0.719748
v 1.043889 0.053589 -0.000000
v 0.322581 0.053590 0.992798
v -0.587786 0.000000 0.809017
v -1.043889 -0.053590 -0.000000
v 0.322581 0.053590 -0.992798
v 0.338902 0.957651 0.246226
v -0.418907 0.957649 -0.000000
vt 0.272727 0.000000
vt 0.250000 0.118096
vt 0.340601 0.117562
vt 0.454545 0.000000
vt 0.386671 0.117562
vt 0.500000 0.078731
vt 0.318592 0.288606
vt 0.681202 0.157461
vt 0.636363 0.236191
vt 0.818181 0.236191
vt 0.863020 0.157461
vt 0.954545 0.236191
vt 0.454545 0.236191
vt 0.499383 0.157461
vt 0.864252 0.314921
vt 0.682434 0.314921
vt 0.727272 0.393651
vt 1.000000 0.314921
vt 0.954545 0.393651
vt 0.136979 0.314921
vt 0.181818 0.393651
vt 0.500616 0.314921
vt 0.386671 0.432483
vt 0.590909 0.393651
vt 0.522419 0.432483
vt 0.318182 0.393651
vt 0.863635 0.393651
vt 0.909090 0.472382
vt 0.181818 0.236191
vt 0.135747 0.157461
vt 0.045454 0.236191
vt 0.000000 0.157461
vt 0.136363 0.078731
vt 0.067874 0.039899
vt 0.636363 0.078731
vt 0.841216 0.039899
vt 0.772726 0.078731
vn -0.1933 -0.9485 -0.2510
vn -0.0764 -0.9594 -0.2714
vn -0.6779 -0.2698 -0.6838
vn 0.8090 0.0090 0.5878
vn -0.1941 -0.0608 0.9791
vn -0.2571 -0.1501 -0.9547
vn 0.8090 0.0090 -0.5878
vn 0.4741 0.5971 0.6470
vn -0.3933 0.7398 0.5459
vn -0.7666 0.5801 -0.2754
vn -0.0493 0.6678 -0.7427
vn 0.6391 0.7398 -0.2105
vn 0.5941 0.7701 -0.2325
vn -0.3353 0.7862 -0.5191
vn -0.0271 0.9961 0.0835
vn -0.1598 0.8559 0.4918
vn 0.8240 0.4974 -0.2714
vn 0.8090 -0.0063 -0.5878
vn -0.0167 0.5015 -0.8650
vn -0.8617 0.4262 -0.2754
vn -0.5162 0.4689 0.7166
vn -0.2014 0.0721 0.9768
vn 0.5128 0.4974 0.6998
vn 0.8090 -0.0063 0.5878
vn 0.0972 -0.3971 -0.9126
vn -0.8019 -0.1959 -0.5645
vn -0.9031 -0.4212 -0.0835
vn -0.8712 0.0608 0.4871
vn -0.8668 -0.0721 0.4934
vn -0.5220 -0.4689 0.7124
vn 0.5287 -0.4264 0.7339
vn 0.8614 -0.4264 -0.2760
vn 0.2004 -0.8521 -0.4834
vn -0.5161 -0.8351 0.1903
vn -0.4272 -0.6912 0.5829
vn 0.7639 -0.5971 -0.2448
vn 0.3439 -0.7701 0.5373
vn 0.3933 -0.7398 0.5459
usemtl None
s off
f 8/1/1 13/2/1 1/3/1
f 8/4/2 1/5/2 11/6/2
f 1/3/3 13/2/3 4/7/3
f 10/8/4 15/9/4 16/10/4
f 9/11/5 16/10/5 17/12/5
f 1/3/6 4/7/6 19/13/6
f 14/14/7 19/13/7 15/9/7
f 2/15/8 6/16/8 20/17/8
f 3/18/9 2/15/9 21/19/9
f 4/7/10 3/20/10 21/21/10
f 5/22/11 4/7/11 7/23/11
f 6/16/12 5/22/12 20/24/12
f 20/24/13 5/22/13 7/25/13
f 7/23/14 4/7/14 21/26/14
f 21/19/15 20/27/15 7/28/15
f 21/19/16 2/15/16 20/27/16
f 15/9/17 5/22/17 6/16/17
f 15/9/18 19/13/18 5/22/18
f 19/13/19 4/7/19 5/22/19
f 18/29/20 3/20/20 4/7/20
f 17/12/21 2/15/21 3/18/21
f 17/12/22 16/10/22 2/15/22
f 16/10/23 6/16/23 2/15/23
f 16/10/24 15/9/24 6/16/24
f 14/14/25 1/3/25 19/13/25
f 4/7/26 13/2/26 18/29/26
f 13/2/27 12/30/27 18/29/27
f 18/29/28 17/31/28 3/20/28
f 18/29/29 12/30/29 17/31/29
f 12/30/30 9/32/30 17/31/30
f 9/11/31 10/8/31 16/10/31
f 10/8/32 14/14/32 15/9/32
f 11/6/33 1/5/33 14/14/33
f 13/33/34 8/34/34 12/30/34
f 8/34/35 9/32/35 12/30/35
f 10/8/36 11/35/36 14/14/36
f 8/36/37 11/37/37 9/11/37
f 11/37/38 10/8/38 9/11/38
